<svg width="20" height="20" viewBox="0 0 20 20" fill="none" xmlns="http://www.w3.org/2000/svg">
<path d="M8.66684 1.96319C9.53305 1.67894 10.4666 1.67894 11.3328 1.96319C12.1956 2.2464 12.8732 2.9185 13.5537 3.8622C14.232 4.80281 14.9817 6.1143 15.9479 7.80486L15.986 7.87088C16.9523 9.56162 17.7017 10.8734 18.1688 11.9369C18.6381 13.0057 18.8719 13.9289 18.6854 14.8153C18.4976 15.7077 18.0346 16.5191 17.3604 17.1325C16.6876 17.7444 15.7715 18.0028 14.6181 18.1268C13.4711 18.2501 11.9706 18.2502 10.0396 18.2502H9.9601C8.02909 18.2502 6.52857 18.2501 5.38163 18.1268C4.22823 18.0028 3.31206 17.7444 2.63931 17.1325C1.96506 16.5191 1.50207 15.7077 1.31426 14.8153C1.12774 13.9289 1.36156 13.0057 1.83092 11.9369C2.29803 10.8734 3.04737 9.56163 4.01365 7.87088L4.0518 7.80486C5.01796 6.1143 5.76764 4.80281 6.44596 3.8622C7.12653 2.91849 7.80404 2.2464 8.66684 1.96319ZM9.99587 13.2197C9.5485 13.2199 9.18589 13.5802 9.18589 14.0246C9.18589 14.469 9.5485 14.8293 9.99587 14.8295H10.0038C10.4512 14.8293 10.8138 14.469 10.8138 14.0246C10.8138 13.5802 10.4512 13.2199 10.0038 13.2197H9.99587ZM9.99984 6.78068C9.55031 6.78068 9.18589 7.14104 9.18589 7.58556V10.8051C9.18589 11.2496 9.55031 11.61 9.99984 11.61C10.4494 11.61 10.8138 11.2496 10.8138 10.8051V7.58556C10.8138 7.14104 10.4494 6.78068 9.99984 6.78068Z" fill="#F04438"/>
</svg>
