<svg width="768" height="500" viewBox="0 0 768 500" fill="none" xmlns="http://www.w3.org/2000/svg">
<mask id="mask0_559_4412" style="mask-type:alpha" maskUnits="userSpaceOnUse" x="0" y="-268" width="768" height="768">
<rect width="768" height="768" transform="translate(0 -268)" fill="url(#paint0_radial_559_4412)"/>
</mask>
<g mask="url(#mask0_559_4412)">
<g clip-path="url(#clip0_559_4412)">
<g clip-path="url(#clip1_559_4412)">
<line x1="0.5" y1="-268" x2="0.5" y2="500" stroke="#F5F5F5"/>
<line x1="48.5" y1="-268" x2="48.5" y2="500" stroke="#F5F5F5"/>
<line x1="96.5" y1="-268" x2="96.5" y2="500" stroke="#F5F5F5"/>
<line x1="144.5" y1="-268" x2="144.5" y2="500" stroke="#F5F5F5"/>
<line x1="192.5" y1="-268" x2="192.5" y2="500" stroke="#F5F5F5"/>
<line x1="240.5" y1="-268" x2="240.5" y2="500" stroke="#F5F5F5"/>
<line x1="288.5" y1="-268" x2="288.5" y2="500" stroke="#F5F5F5"/>
<line x1="336.5" y1="-268" x2="336.5" y2="500" stroke="#F5F5F5"/>
<line x1="384.5" y1="-268" x2="384.5" y2="500" stroke="#F5F5F5"/>
<line x1="432.5" y1="-268" x2="432.5" y2="500" stroke="#F5F5F5"/>
<line x1="480.5" y1="-268" x2="480.5" y2="500" stroke="#F5F5F5"/>
<line x1="528.5" y1="-268" x2="528.5" y2="500" stroke="#F5F5F5"/>
<line x1="576.5" y1="-268" x2="576.5" y2="500" stroke="#F5F5F5"/>
<line x1="624.5" y1="-268" x2="624.5" y2="500" stroke="#F5F5F5"/>
<line x1="672.5" y1="-268" x2="672.5" y2="500" stroke="#F5F5F5"/>
<line x1="720.5" y1="-268" x2="720.5" y2="500" stroke="#F5F5F5"/>
</g>
<rect x="0.5" y="-267.5" width="767" height="767" stroke="#F5F5F5"/>
<g clip-path="url(#clip2_559_4412)">
<line y1="19.5" x2="768" y2="19.5" stroke="#F5F5F5"/>
<line y1="67.5" x2="768" y2="67.5" stroke="#F5F5F5"/>
<line y1="115.5" x2="768" y2="115.5" stroke="#F5F5F5"/>
<line y1="163.5" x2="768" y2="163.5" stroke="#F5F5F5"/>
<line y1="211.5" x2="768" y2="211.5" stroke="#F5F5F5"/>
<line y1="259.5" x2="768" y2="259.5" stroke="#F5F5F5"/>
<line y1="307.5" x2="768" y2="307.5" stroke="#F5F5F5"/>
<line y1="355.5" x2="768" y2="355.5" stroke="#F5F5F5"/>
<line y1="403.5" x2="768" y2="403.5" stroke="#F5F5F5"/>
<line y1="451.5" x2="768" y2="451.5" stroke="#F5F5F5"/>
<line y1="499.5" x2="768" y2="499.5" stroke="#F5F5F5"/>
</g>
<rect x="0.5" y="-267.5" width="767" height="767" stroke="#F5F5F5"/>
</g>
</g>
<defs>
<radialGradient id="paint0_radial_559_4412" cx="0" cy="0" r="1" gradientUnits="userSpaceOnUse" gradientTransform="translate(384 384) rotate(90) scale(384 384)">
<stop/>
<stop offset="1" stop-opacity="0"/>
</radialGradient>
<clipPath id="clip0_559_4412">
<rect width="768" height="768" fill="white" transform="translate(0 -268)"/>
</clipPath>
<clipPath id="clip1_559_4412">
<rect y="-268" width="768" height="768" fill="white"/>
</clipPath>
<clipPath id="clip2_559_4412">
<rect y="-268" width="768" height="768" fill="white"/>
</clipPath>
</defs>
</svg>
