<svg width="54" height="54" viewBox="0 0 54 54" fill="none" xmlns="http://www.w3.org/2000/svg">
<g filter="url(#filter0_dd_559_4455)">
<g clip-path="url(#clip0_559_4455)">
<path d="M3 21.2C3 14.4794 3 11.1191 4.30792 8.55211C5.4584 6.29417 7.29417 4.4584 9.55211 3.30792C12.1191 2 15.4794 2 22.2 2H31.8C38.5206 2 41.8809 2 44.4479 3.30792C46.7058 4.4584 48.5416 6.29417 49.6921 8.55211C51 11.1191 51 14.4794 51 21.2V30.8C51 37.5206 51 40.8809 49.6921 43.4479C48.5416 45.7058 46.7058 47.5416 44.4479 48.6921C41.8809 50 38.5206 50 31.8 50H22.2C15.4794 50 12.1191 50 9.55211 48.6921C7.29417 47.5416 5.4584 45.7058 4.30792 43.4479C3 40.8809 3 37.5206 3 30.8V21.2Z" fill="white"/>
<path d="M3 21.2C3 14.4794 3 11.1191 4.30792 8.55211C5.4584 6.29417 7.29417 4.4584 9.55211 3.30792C12.1191 2 15.4794 2 22.2 2H31.8C38.5206 2 41.8809 2 44.4479 3.30792C46.7058 4.4584 48.5416 6.29417 49.6921 8.55211C51 11.1191 51 14.4794 51 21.2V30.8C51 37.5206 51 40.8809 49.6921 43.4479C48.5416 45.7058 46.7058 47.5416 44.4479 48.6921C41.8809 50 38.5206 50 31.8 50H22.2C15.4794 50 12.1191 50 9.55211 48.6921C7.29417 47.5416 5.4584 45.7058 4.30792 43.4479C3 40.8809 3 37.5206 3 30.8V21.2Z" fill="url(#paint0_linear_559_4455)" fill-opacity="0.1"/>
<path opacity="0.3" d="M27 24.1855C28.9329 24.1855 30.4999 25.711 30.5 27.5928C30.5 29.4747 28.933 31 27 31C25.067 31 23.5 29.4747 23.5 27.5928C23.5001 25.711 25.0671 24.1855 27 24.1855Z" fill="#7F56D9"/>
<path d="M35 25H37C36.497 19.9467 32.2229 16 27.0247 16C21.4882 16 17 20.4772 17 26C17 31.5228 21.4882 36 27.0247 36C31.1355 36 34.6684 33.5318 36.2154 30" stroke="#7F56D9" stroke-width="1.5" stroke-linecap="round" stroke-linejoin="round"/>
<path d="M29.25 24.9824V23.1905C29.25 21.9807 28.2426 21 27 21C25.7574 21 24.75 21.9807 24.75 23.1905V24.9824M27 31C25.067 31 23.5 29.4744 23.5 27.5926C23.5 25.7107 25.067 24.1851 27 24.1851C28.933 24.1851 30.5 25.7107 30.5 27.5926C30.5 29.4744 28.933 31 27 31Z" stroke="#7F56D9" stroke-width="1.5" stroke-linecap="round"/>
</g>
<path d="M22.2002 2.15039H31.7998C35.1624 2.15039 37.6755 2.15063 39.6689 2.31348C41.6607 2.47621 43.1211 2.80002 44.3799 3.44141C46.6096 4.5775 48.4225 6.3904 49.5586 8.62012C50.2 9.87892 50.5238 11.3393 50.6865 13.3311C50.8494 15.3245 50.8496 17.8376 50.8496 21.2002V30.7998C50.8496 34.1624 50.8494 36.6755 50.6865 38.6689C50.5238 40.6607 50.2 42.1211 49.5586 43.3799C48.4225 45.6096 46.6096 47.4225 44.3799 48.5586C43.1211 49.2 41.6607 49.5238 39.6689 49.6865C37.6755 49.8494 35.1624 49.8496 31.7998 49.8496H22.2002C18.8376 49.8496 16.3245 49.8494 14.3311 49.6865C12.3393 49.5238 10.8789 49.2 9.62012 48.5586C7.3904 47.4225 5.5775 45.6096 4.44141 43.3799C3.80002 42.1211 3.47621 40.6607 3.31348 38.6689C3.15063 36.6755 3.15039 34.1624 3.15039 30.7998V21.2002C3.15039 17.8376 3.15063 15.3245 3.31348 13.3311C3.47621 11.3393 3.80002 9.87892 4.44141 8.62012C5.5775 6.3904 7.3904 4.5775 9.62012 3.44141C10.8789 2.80002 12.3393 2.47621 14.3311 2.31348C16.3245 2.15063 18.8376 2.15039 22.2002 2.15039Z" stroke="#E9EAEB" stroke-width="0.3"/>
</g>
<defs>
<filter id="filter0_dd_559_4455" x="0" y="0" width="54" height="54" filterUnits="userSpaceOnUse" color-interpolation-filters="sRGB">
<feFlood flood-opacity="0" result="BackgroundImageFix"/>
<feColorMatrix in="SourceAlpha" type="matrix" values="0 0 0 0 0 0 0 0 0 0 0 0 0 0 0 0 0 0 127 0" result="hardAlpha"/>
<feMorphology radius="1" operator="erode" in="SourceAlpha" result="effect1_dropShadow_559_4455"/>
<feOffset dy="1"/>
<feGaussianBlur stdDeviation="1"/>
<feComposite in2="hardAlpha" operator="out"/>
<feColorMatrix type="matrix" values="0 0 0 0 0.0392157 0 0 0 0 0.0496732 0 0 0 0 0.0705882 0 0 0 0.1 0"/>
<feBlend mode="normal" in2="BackgroundImageFix" result="effect1_dropShadow_559_4455"/>
<feColorMatrix in="SourceAlpha" type="matrix" values="0 0 0 0 0 0 0 0 0 0 0 0 0 0 0 0 0 0 127 0" result="hardAlpha"/>
<feOffset dy="1"/>
<feGaussianBlur stdDeviation="1.5"/>
<feComposite in2="hardAlpha" operator="out"/>
<feColorMatrix type="matrix" values="0 0 0 0 0.0392157 0 0 0 0 0.0496732 0 0 0 0 0.0705882 0 0 0 0.1 0"/>
<feBlend mode="normal" in2="effect1_dropShadow_559_4455" result="effect2_dropShadow_559_4455"/>
<feBlend mode="normal" in="SourceGraphic" in2="effect2_dropShadow_559_4455" result="shape"/>
</filter>
<linearGradient id="paint0_linear_559_4455" x1="27" y1="19.5" x2="27" y2="50" gradientUnits="userSpaceOnUse">
<stop stop-color="white"/>
<stop offset="1" stop-color="#7F56D9"/>
</linearGradient>
<clipPath id="clip0_559_4455">
<path d="M3 21.2C3 14.4794 3 11.1191 4.30792 8.55211C5.4584 6.29417 7.29417 4.4584 9.55211 3.30792C12.1191 2 15.4794 2 22.2 2H31.8C38.5206 2 41.8809 2 44.4479 3.30792C46.7058 4.4584 48.5416 6.29417 49.6921 8.55211C51 11.1191 51 14.4794 51 21.2V30.8C51 37.5206 51 40.8809 49.6921 43.4479C48.5416 45.7058 46.7058 47.5416 44.4479 48.6921C41.8809 50 38.5206 50 31.8 50H22.2C15.4794 50 12.1191 50 9.55211 48.6921C7.29417 47.5416 5.4584 45.7058 4.30792 43.4479C3 40.8809 3 37.5206 3 30.8V21.2Z" fill="white"/>
</clipPath>
</defs>
</svg>
