<svg width="54" height="54" viewBox="0 0 54 54" fill="none" xmlns="http://www.w3.org/2000/svg">
<g filter="url(#filter0_dd_432_1796)">
<path d="M3 14.8002C3 10.3198 3 8.07961 3.87195 6.36832C4.63893 4.86302 5.86278 3.63918 7.36808 2.87219C9.07937 2.00024 11.3196 2.00024 15.8 2.00024H38.2C42.6804 2.00024 44.9206 2.00024 46.6319 2.87219C48.1372 3.63918 49.3611 4.86302 50.1281 6.36832C51 8.07961 51 10.3198 51 14.8002V37.2002C51 41.6807 51 43.9209 50.1281 45.6322C49.3611 47.1375 48.1372 48.3613 46.6319 49.1283C44.9206 50.0002 42.6804 50.0002 38.2 50.0002H15.8C11.3196 50.0002 9.07937 50.0002 7.36808 49.1283C5.86278 48.3613 4.63893 47.1375 3.87195 45.6322C3 43.9209 3 41.6807 3 37.2002V14.8002Z" fill="url(#paint0_linear_432_1796)" shape-rendering="crispEdges"/>
<path d="M25.3623 16.0149C26.4265 15.6617 27.5735 15.6617 28.6377 16.0149C29.6977 16.3667 30.5301 17.2018 31.3662 18.3742C32.205 19.5505 33.1328 21.1934 34.3311 23.3137C35.5294 25.4341 36.4586 27.0766 37.0362 28.4065C37.6128 29.7343 37.9001 30.8813 37.6709 31.9826C37.4402 33.0913 36.8714 34.0995 36.043 34.8615C35.2165 35.6218 34.0909 35.9428 32.6739 36.0969C31.2551 36.2511 29.396 36.2502 27 36.2502C24.6041 36.2502 22.745 36.2511 21.3262 36.0969C19.9092 35.9428 18.7836 35.6218 17.9571 34.8615C17.1287 34.0995 16.5599 33.0913 16.3291 31.9826C16.1 30.8813 16.3872 29.7343 16.9639 28.4065C17.5415 27.0766 18.4706 25.4341 19.669 23.3137C20.8672 21.1934 21.795 19.5505 22.6338 18.3742C23.4699 17.2018 24.3023 16.3667 25.3623 16.0149ZM28.1651 17.4387C27.4077 17.1874 26.5924 17.1874 25.835 17.4387C25.239 17.6365 24.6392 18.145 23.8545 19.2453C23.0726 20.3419 22.1898 21.9017 20.9746 24.052C19.7595 26.2022 18.8786 27.7637 18.3399 29.0041C17.8002 30.2468 17.665 31.0383 17.7979 31.677C17.9655 32.4824 18.3776 33.2106 18.9727 33.758C19.4401 34.188 20.1685 34.4622 21.4883 34.6057C22.8067 34.749 24.5686 34.7502 27 34.7502C29.4314 34.7502 31.1933 34.749 32.5117 34.6057C33.8316 34.4622 34.56 34.188 35.0274 33.758C35.6225 33.2106 36.0345 32.4824 36.2022 31.677C36.335 31.0383 36.1999 30.2468 35.6602 29.0041C35.1214 27.7637 34.2406 26.2022 33.0254 24.052C31.8102 21.9017 30.9275 20.3419 30.1455 19.2453C29.3608 18.145 28.7611 17.6365 28.1651 17.4387Z" fill="#F04438"/>
<path d="M26.4922 31.0002V27.0002C26.4922 26.9011 26.4914 26.8207 26.4903 26.7512C26.421 26.7501 26.3409 26.7502 26.2422 26.7502C25.828 26.7502 25.4922 26.4144 25.4922 26.0002C25.4922 25.586 25.828 25.2502 26.2422 25.2502C26.4567 25.2502 26.6929 25.249 26.8907 25.2756C27.11 25.3051 27.3902 25.3806 27.626 25.6164C27.8618 25.8522 27.9373 26.1325 27.9668 26.3518C27.9934 26.5495 27.9922 26.7858 27.9922 27.0002V31.0002C27.9922 31.4144 27.6564 31.7502 27.2422 31.7502C26.828 31.7502 26.4922 31.4144 26.4922 31.0002Z" fill="#F04438"/>
<path d="M27.001 22.0002C27.5533 22.0002 28.001 22.4479 28.001 23.0002C28.001 23.5525 27.5533 24.0002 27.001 24.0002H26.9922C26.4399 24.0002 25.9922 23.5525 25.9922 23.0002C25.9922 22.4479 26.4399 22.0002 26.9922 22.0002H27.001Z" fill="#F04438"/>
</g>
<defs>
<filter id="filter0_dd_432_1796" x="0" y="0.000244141" width="54" height="54" filterUnits="userSpaceOnUse" color-interpolation-filters="sRGB">
<feFlood flood-opacity="0" result="BackgroundImageFix"/>
<feColorMatrix in="SourceAlpha" type="matrix" values="0 0 0 0 0 0 0 0 0 0 0 0 0 0 0 0 0 0 127 0" result="hardAlpha"/>
<feMorphology radius="1" operator="erode" in="SourceAlpha" result="effect1_dropShadow_432_1796"/>
<feOffset dy="1"/>
<feGaussianBlur stdDeviation="1"/>
<feComposite in2="hardAlpha" operator="out"/>
<feColorMatrix type="matrix" values="0 0 0 0 0.0392157 0 0 0 0 0.0496732 0 0 0 0 0.0705882 0 0 0 0.1 0"/>
<feBlend mode="normal" in2="BackgroundImageFix" result="effect1_dropShadow_432_1796"/>
<feColorMatrix in="SourceAlpha" type="matrix" values="0 0 0 0 0 0 0 0 0 0 0 0 0 0 0 0 0 0 127 0" result="hardAlpha"/>
<feOffset dy="1"/>
<feGaussianBlur stdDeviation="1.5"/>
<feComposite in2="hardAlpha" operator="out"/>
<feColorMatrix type="matrix" values="0 0 0 0 0.0392157 0 0 0 0 0.0496732 0 0 0 0 0.0705882 0 0 0 0.1 0"/>
<feBlend mode="normal" in2="effect1_dropShadow_432_1796" result="effect2_dropShadow_432_1796"/>
<feBlend mode="normal" in="SourceGraphic" in2="effect2_dropShadow_432_1796" result="shape"/>
</filter>
<linearGradient id="paint0_linear_432_1796" x1="27" y1="2.00024" x2="27" y2="50.0002" gradientUnits="userSpaceOnUse">
<stop offset="0.495913" stop-color="white"/>
<stop offset="1" stop-color="#FEF3F2"/>
</linearGradient>
</defs>
</svg>
