<svg width="54" height="54" viewBox="0 0 54 54" fill="none" xmlns="http://www.w3.org/2000/svg">
<g filter="url(#filter0_dd_2517_12260)">
<path d="M3 14.8002C3 10.3198 3 8.07961 3.87195 6.36832C4.63893 4.86302 5.86278 3.63918 7.36808 2.87219C9.07937 2.00024 11.3196 2.00024 15.8 2.00024H38.2C42.6804 2.00024 44.9206 2.00024 46.6319 2.87219C48.1372 3.63918 49.3611 4.86302 50.1281 6.36832C51 8.07961 51 10.3198 51 14.8002V37.2002C51 41.6807 51 43.9209 50.1281 45.6322C49.3611 47.1375 48.1372 48.3613 46.6319 49.1283C44.9206 50.0002 42.6804 50.0002 38.2 50.0002H15.8C11.3196 50.0002 9.07937 50.0002 7.36808 49.1283C5.86278 48.3613 4.63893 47.1375 3.87195 45.6322C3 43.9209 3 41.6807 3 37.2002V14.8002Z" fill="url(#paint0_linear_2517_12260)" shape-rendering="crispEdges"/>
<path d="M19.4551 18.7512C19.8427 18.728 20.1793 19.0038 20.2402 19.3792L20.249 19.4553L20.8535 29.47C20.9318 30.7669 20.9876 31.6869 21.0996 32.3997C21.2098 33.1004 21.3648 33.5263 21.5947 33.8567C21.8525 34.227 22.1842 34.5397 22.5693 34.7747C22.913 34.9843 23.3476 35.1132 24.0537 35.1809C24.7719 35.2498 25.6938 35.2502 26.9932 35.2502C28.2905 35.2502 29.2106 35.2496 29.9277 35.1809C30.6328 35.1133 31.0668 34.9848 31.4102 34.7756C31.7952 34.5411 32.1279 34.2294 32.3857 33.8596C32.6157 33.5298 32.7699 33.1041 32.8809 32.4045C32.9938 31.6929 33.0518 30.774 33.1318 29.4788L33.751 19.4543C33.7765 19.0411 34.1326 18.7259 34.5459 18.7512C34.9592 18.7768 35.2744 19.1329 35.249 19.5461L34.6289 29.5715C34.5506 30.8377 34.4891 31.8407 34.3623 32.6399C34.2336 33.4508 34.0281 34.1263 33.6162 34.717C33.2393 35.2576 32.7532 35.714 32.1904 36.0569C31.5754 36.4315 30.8887 36.5957 30.0713 36.6741C29.2659 36.7513 28.2615 36.7502 26.9932 36.7502C25.7229 36.7502 24.7166 36.7514 23.9102 36.6741C23.0917 36.5955 22.4037 36.4314 21.7881 36.0559C21.225 35.7124 20.7401 35.2546 20.3633 34.7131C19.9515 34.1214 19.7459 33.4452 19.6182 32.6331C19.4924 31.8328 19.433 30.8286 19.3564 29.5608L18.751 19.5452V19.469C18.7664 19.089 19.0674 18.7746 19.4551 18.7512Z" fill="#F04438"/>
<path d="M27.0342 15.2502C27.5408 15.2502 27.9701 15.2497 28.3252 15.2815C28.694 15.3145 29.038 15.3856 29.3721 15.5588C29.5042 15.6274 29.6307 15.7072 29.75 15.7961C30.0518 16.0213 30.2663 16.2997 30.457 16.6174C30.6405 16.9231 30.8269 17.3092 31.0479 17.7649L31.5254 18.7502H36C36.4142 18.7502 36.75 19.086 36.75 19.5002C36.75 19.9145 36.4142 20.2502 36 20.2502H18C17.5858 20.2502 17.25 19.9145 17.25 19.5002C17.25 19.086 17.5858 18.7502 18 18.7502H22.5703L22.9766 17.8606C23.1919 17.3881 23.373 16.9879 23.5537 16.6711C23.7415 16.342 23.9553 16.053 24.2607 15.8186C24.3813 15.7261 24.5094 15.6438 24.6436 15.5725C24.9835 15.3917 25.3354 15.3168 25.7129 15.2825C26.076 15.2494 26.5151 15.2502 27.0342 15.2502ZM27.0342 16.7502C26.4881 16.7502 26.1282 16.7512 25.8486 16.7766C25.5832 16.8008 25.448 16.8434 25.3477 16.8967C25.2868 16.9291 25.2285 16.9661 25.1738 17.0081C25.0837 17.0772 24.9885 17.1828 24.8564 17.4143C24.7173 17.6582 24.5674 17.9856 24.3408 18.4827L24.2188 18.7502H29.8584L29.6982 18.4192C29.4657 17.9396 29.3119 17.6239 29.1709 17.3889C29.0372 17.1662 28.9427 17.0649 28.8535 16.9983C28.7993 16.9579 28.7417 16.922 28.6816 16.8909C28.5828 16.8396 28.4504 16.7988 28.1914 16.7756C27.9184 16.7512 27.5672 16.7502 27.0342 16.7502Z" fill="#F04438"/>
<path d="M23.75 24.5002L23.7539 24.4231C23.7925 24.0451 24.1118 23.7502 24.5 23.7502C24.8882 23.7502 25.2075 24.0451 25.2461 24.4231L25.25 24.5002L25.25 30.5002C25.25 30.9145 24.9142 31.2502 24.5 31.2502C24.0858 31.2502 23.75 30.9145 23.75 30.5002L23.75 24.5002Z" fill="#F04438"/>
<path d="M28.75 30.5002V24.5002C28.75 24.086 29.0858 23.7502 29.5 23.7502C29.9142 23.7502 30.25 24.086 30.25 24.5002V30.5002C30.25 30.9145 29.9142 31.2502 29.5 31.2502C29.0858 31.2502 28.75 30.9145 28.75 30.5002Z" fill="#F04438"/>
</g>
<defs>
<filter id="filter0_dd_2517_12260" x="0" y="0.000244141" width="54" height="54" filterUnits="userSpaceOnUse" color-interpolation-filters="sRGB">
<feFlood flood-opacity="0" result="BackgroundImageFix"/>
<feColorMatrix in="SourceAlpha" type="matrix" values="0 0 0 0 0 0 0 0 0 0 0 0 0 0 0 0 0 0 127 0" result="hardAlpha"/>
<feMorphology radius="1" operator="erode" in="SourceAlpha" result="effect1_dropShadow_2517_12260"/>
<feOffset dy="1"/>
<feGaussianBlur stdDeviation="1"/>
<feComposite in2="hardAlpha" operator="out"/>
<feColorMatrix type="matrix" values="0 0 0 0 0.0392157 0 0 0 0 0.0496732 0 0 0 0 0.0705882 0 0 0 0.1 0"/>
<feBlend mode="normal" in2="BackgroundImageFix" result="effect1_dropShadow_2517_12260"/>
<feColorMatrix in="SourceAlpha" type="matrix" values="0 0 0 0 0 0 0 0 0 0 0 0 0 0 0 0 0 0 127 0" result="hardAlpha"/>
<feOffset dy="1"/>
<feGaussianBlur stdDeviation="1.5"/>
<feComposite in2="hardAlpha" operator="out"/>
<feColorMatrix type="matrix" values="0 0 0 0 0.0392157 0 0 0 0 0.0496732 0 0 0 0 0.0705882 0 0 0 0.1 0"/>
<feBlend mode="normal" in2="effect1_dropShadow_2517_12260" result="effect2_dropShadow_2517_12260"/>
<feBlend mode="normal" in="SourceGraphic" in2="effect2_dropShadow_2517_12260" result="shape"/>
</filter>
<linearGradient id="paint0_linear_2517_12260" x1="27" y1="2.00024" x2="27" y2="50.0002" gradientUnits="userSpaceOnUse">
<stop offset="0.495913" stop-color="white"/>
<stop offset="1" stop-color="#FEF3F2"/>
</linearGradient>
</defs>
</svg>
