<svg width="54" height="54" viewBox="0 0 54 54" fill="none" xmlns="http://www.w3.org/2000/svg">
<g filter="url(#filter0_dd_2463_28681)">
<path d="M3 14.8C3 10.3196 3 8.07937 3.87195 6.36808C4.63893 4.86278 5.86278 3.63893 7.36808 2.87195C9.07937 2 11.3196 2 15.8 2H38.2C42.6804 2 44.9206 2 46.6319 2.87195C48.1372 3.63893 49.3611 4.86278 50.1281 6.36808C51 8.07937 51 10.3196 51 14.8V37.2C51 41.6804 51 43.9206 50.1281 45.6319C49.3611 47.1372 48.1372 48.3611 46.6319 49.1281C44.9206 50 42.6804 50 38.2 50H15.8C11.3196 50 9.07937 50 7.36808 49.1281C5.86278 48.3611 4.63893 47.1372 3.87195 45.6319C3 43.9206 3 41.6804 3 37.2V14.8Z" fill="url(#paint0_linear_2463_28681)" shape-rendering="crispEdges"/>
<path d="M25.3624 16.0149C26.4266 15.6617 27.5736 15.6617 28.6378 16.0149C29.6978 16.3667 30.5302 17.2018 31.3663 18.3742C32.2051 19.5505 33.1329 21.1934 34.3311 23.3137C35.5295 25.4341 36.4586 27.0766 37.0362 28.4065C37.6129 29.7343 37.9001 30.8813 37.671 31.9826C37.4402 33.0913 36.8714 34.0995 36.0431 34.8615C35.2165 35.6218 34.0909 35.9428 32.6739 36.0969C31.2552 36.2511 29.396 36.2502 27.0001 36.2502C24.6041 36.2502 22.745 36.2511 21.3263 36.0969C19.9092 35.9428 18.7836 35.6218 17.9571 34.8615C17.1288 34.0995 16.5599 33.0913 16.3292 31.9826C16.1 30.8813 16.3873 29.7343 16.964 28.4065C17.5416 27.0766 18.4707 25.4341 19.669 23.3137C20.8673 21.1934 21.7951 19.5505 22.6339 18.3742C23.47 17.2018 24.3024 16.3667 25.3624 16.0149ZM28.1651 17.4387C27.4077 17.1874 26.5924 17.1874 25.835 17.4387C25.2391 17.6365 24.6393 18.145 23.8546 19.2453C23.0727 20.3419 22.1899 21.9017 20.9747 24.052C19.7595 26.2022 18.8787 27.7637 18.3399 29.0041C17.8003 30.2468 17.6651 31.0383 17.7979 31.677C17.9656 32.4824 18.3776 33.2106 18.9727 33.758C19.4401 34.188 20.1685 34.4622 21.4884 34.6057C22.8068 34.749 24.5687 34.7502 27.0001 34.7502C29.4315 34.7502 31.1934 34.749 32.5118 34.6057C33.8316 34.4622 34.56 34.188 35.0274 33.758C35.6225 33.2106 36.0346 32.4824 36.2022 31.677C36.3351 31.0383 36.1999 30.2468 35.6602 29.0041C35.1215 27.7637 34.2407 26.2022 33.0255 24.052C31.8103 21.9017 30.9275 20.3419 30.1456 19.2453C29.3609 18.145 28.7611 17.6365 28.1651 17.4387Z" fill="#F04438"/>
<path d="M26.4923 31.0002V27.0002C26.4923 26.9011 26.4914 26.8207 26.4903 26.7512C26.4211 26.7501 26.341 26.7502 26.2423 26.7502C25.8281 26.7502 25.4923 26.4144 25.4923 26.0002C25.4923 25.586 25.8281 25.2502 26.2423 25.2502C26.4567 25.2502 26.693 25.249 26.8907 25.2756C27.11 25.3051 27.3903 25.3806 27.6261 25.6164C27.8619 25.8522 27.9374 26.1325 27.9669 26.3518C27.9935 26.5495 27.9923 26.7858 27.9923 27.0002V31.0002C27.9923 31.4144 27.6565 31.7502 27.2423 31.7502C26.8281 31.7502 26.4923 31.4144 26.4923 31.0002Z" fill="#F04438"/>
<path d="M27.0011 22.0002C27.5533 22.0002 28.0011 22.4479 28.0011 23.0002C28.0011 23.5525 27.5533 24.0002 27.0011 24.0002H26.9923C26.44 24.0002 25.9923 23.5525 25.9923 23.0002C25.9923 22.4479 26.44 22.0002 26.9923 22.0002H27.0011Z" fill="#F04438"/>
</g>
<defs>
<filter id="filter0_dd_2463_28681" x="0" y="0" width="54" height="54" filterUnits="userSpaceOnUse" color-interpolation-filters="sRGB">
<feFlood flood-opacity="0" result="BackgroundImageFix"/>
<feColorMatrix in="SourceAlpha" type="matrix" values="0 0 0 0 0 0 0 0 0 0 0 0 0 0 0 0 0 0 127 0" result="hardAlpha"/>
<feMorphology radius="1" operator="erode" in="SourceAlpha" result="effect1_dropShadow_2463_28681"/>
<feOffset dy="1"/>
<feGaussianBlur stdDeviation="1"/>
<feComposite in2="hardAlpha" operator="out"/>
<feColorMatrix type="matrix" values="0 0 0 0 0.0392157 0 0 0 0 0.0496732 0 0 0 0 0.0705882 0 0 0 0.1 0"/>
<feBlend mode="normal" in2="BackgroundImageFix" result="effect1_dropShadow_2463_28681"/>
<feColorMatrix in="SourceAlpha" type="matrix" values="0 0 0 0 0 0 0 0 0 0 0 0 0 0 0 0 0 0 127 0" result="hardAlpha"/>
<feOffset dy="1"/>
<feGaussianBlur stdDeviation="1.5"/>
<feComposite in2="hardAlpha" operator="out"/>
<feColorMatrix type="matrix" values="0 0 0 0 0.0392157 0 0 0 0 0.0496732 0 0 0 0 0.0705882 0 0 0 0.1 0"/>
<feBlend mode="normal" in2="effect1_dropShadow_2463_28681" result="effect2_dropShadow_2463_28681"/>
<feBlend mode="normal" in="SourceGraphic" in2="effect2_dropShadow_2463_28681" result="shape"/>
</filter>
<linearGradient id="paint0_linear_2463_28681" x1="27" y1="2" x2="27" y2="50" gradientUnits="userSpaceOnUse">
<stop offset="0.495913" stop-color="white"/>
<stop offset="1" stop-color="#FEF3F2"/>
</linearGradient>
</defs>
</svg>
